# xmcd
#
# Track frame offsets:
# 150
# 12490
# 38330
# 53827
# 76522
# 86892
# 110110
# 125645
# 139592
# 154047
# 175845
# 190397
# 211372
# 229962
# 249097
# 280520
#
# Disc length: 4066 seconds
#
#
# Revision: 0
# Processed by: cddbd v1.5.1PL0 Copyright (c) Steve Scherf et al.
# Submitted via: FreeRIP 2.90 
#
DISCID=cf0fe010
DTITLE=Various Artist - Whole Lotta Blues
DYEAR=1900
DGENRE=Blues
TTITLE0=I'm In The Mood (John Lee Hooker)
TTITLE1=The Blues Is Alright (Gary Moore)
TTITLE2=Nobody Never Hurt Nobody But With The Blues (Larry McCray)
TTITLE3=Murdering Blues (Johnny Winter)
TTITLE4=Shotgun Blues (Jason and the Scorchers)
TTITLE5=Blues Of The Month Club (Jou Louis Walker)
TTITLE6=Bump And Grind (Z. Z. Hill)
TTITLE7=Break My Rule (Tinsley Ellis)
TTITLE8=My Little Girl (The Jeff Healey Band)
TTITLE9=Bad To The Bone (George Thorogood and the Destroyers)
TTITLE10=Payin The Cost To Be The Boss (Pat Benatar)
TTITLE11=She Spread Her Wings And Flew Away (Lucky Peterson)
TTITLE12=I'm Gonna Stop You From Givin Me The Blues (Z. Z. Hill)
TTITLE13=My Mind Is Rambling (John Hammond)
TTITLE14=Lights Are On, But Nobodys Home (Albert Collins)
TTITLE15=The Thrill Is Gone (B. B. King)
EXTD=
EXTT0=
EXTT1=
EXTT2=
EXTT3=
EXTT4=
EXTT5=
EXTT6=
EXTT7=
EXTT8=
EXTT9=
EXTT10=
EXTT11=
EXTT12=
EXTT13=
EXTT14=
EXTT15=
PLAYORDER=
